<svg xmlns="http://www.w3.org/2000/svg" viewBox="0 0 130 130" fill="none" stroke="#c2954e" stroke-width="1.1" stroke-linecap="round">
  <path d="M10 10c46 2 78 8 108 30"/>
  <path d="M10 10c2 46 8 78 30 108"/>
  <path d="M10 10c20 0 34 6 44 18 6 8 8 18 4 26-3 6-10 8-15 4-4-3-4-9 0-12 3-2 8-1 9 3"/>
  <path d="M28 14c-1 5-1 10 1 15M14 28c5-1 10-1 15 1" stroke-width=".9"/>
  <circle cx="10" cy="10" r="2.4" fill="#c2954e" stroke="none"/>
  <circle cx="49" cy="46" r="1.6" fill="#c2954e" stroke="none"/>
</svg>
