<svg xmlns="http://www.w3.org/2000/svg" viewBox="0 0 200 60" fill="none">
  <!-- center stem -->
  <path d="M100 56c0-14 0-26 0-34" stroke="#7fa05b" stroke-width="1.6" stroke-linecap="round"/>
  <!-- leaves -->
  <g fill="#7fa05b">
    <path d="M100 40c-10-2-18-8-22-16 8-1 18 4 22 16Z"/>
    <path d="M100 40c10-2 18-8 22-16-8-1-18 4-22 16Z"/>
    <path d="M100 30c-7-1-13-6-16-12 6-1 13 3 16 12Z" opacity=".85"/>
    <path d="M100 30c7-1 13-6 16-12-6-1-13 3-16 12Z" opacity=".85"/>
  </g>
  <!-- side sprigs -->
  <path d="M100 44C84 44 70 40 58 32M100 44c16 0 30-4 42-12" stroke="#5d7d44" stroke-width="1.2" stroke-linecap="round"/>
  <!-- blossoms -->
  <g>
    <g transform="translate(100 16)">
      <circle r="9" fill="#f3a683"/>
      <circle r="4.5" fill="#e26d5a"/>
      <circle r="2" fill="#f6c453"/>
    </g>
    <g transform="translate(58 30)">
      <circle r="6" fill="#d98ca7"/>
      <circle r="2.6" fill="#f6c453"/>
    </g>
    <g transform="translate(142 30)">
      <circle r="6" fill="#6cb2c4"/>
      <circle r="2.6" fill="#f6c453"/>
    </g>
    <g transform="translate(78 44)">
      <circle r="4.5" fill="#f6c453"/>
      <circle r="2" fill="#e26d5a"/>
    </g>
    <g transform="translate(122 44)">
      <circle r="4.5" fill="#f6c453"/>
      <circle r="2" fill="#e26d5a"/>
    </g>
  </g>
</svg>
